<?xml version="1.0" encoding="UTF-8"?>
<svg version="1.1" xmlns="http://www.w3.org/2000/svg" width="1563" height="1563">
<path d="M0 0 C2.00890082 0.22950962 4.01873006 0.44859408 6.0289917 0.66583252 C37.36668848 4.09594438 68.37214726 9.79451451 98.99432373 17.22784424 C100.70144531 17.63921631 100.70144531 17.63921631 102.4430542 18.05889893 C129.79346272 24.71266784 156.6919901 33.21075031 182.99432373 43.22784424 C184.15077393 43.66822021 185.30722412 44.10859619 186.49871826 44.56231689 C204.57981199 51.50543757 222.17283015 59.26932147 239.63983154 67.63067627 C242.6622876 69.06975251 245.69498612 70.48198954 248.73651123 71.88018799 C261.02793357 77.55978229 272.78070635 84.00341136 284.49578857 90.78692627 C286.61847852 92.01109239 288.74866489 93.21825488 290.88885498 94.41143799 C322.2182692 111.95445107 351.96288246 132.84559649 379.99432373 155.22784424 C380.86057373 155.91104736 381.72682373 156.59425049 382.61932373 157.29815674 C392.27401696 164.94145554 401.64036951 172.91839943 410.75213623 181.20050049 C412.70640798 182.96751623 414.68492111 184.69697953 416.68182373 186.41534424 C428.04527827 196.37232012 438.80401478 206.93512807 449.49432373 217.60284424 C450.06044373 218.16637604 450.62656372 218.72990784 451.20983887 219.31051636 C457.35855864 225.43706714 463.3580333 231.62057996 468.99432373 238.22784424 C470.6140019 240.00354645 472.23844091 241.77492731 473.86932373 243.54034424 C477.9587016 248.02447352 481.84051394 252.63051661 485.65057373 257.35284424 C487.74448562 259.92137615 489.87603059 262.44816031 492.03094482 264.96514893 C497.43953545 271.28805341 502.62772657 277.75142604 507.62371826 284.40655518 C508.55766703 285.64760573 509.49634721 286.88510648 510.43914795 288.1194458 C534.23628949 319.29347188 555.31335131 352.8908404 573.58465576 387.56866455 C574.86581559 389.98542813 576.17145822 392.38625462 577.49041748 394.78253174 C616.64535513 466.48526128 640.13503698 547.52870603 658.19744873 709.73565674 C658.20027611 710.5451263 658.20310349 711.35459587 658.20601654 712.18859482 C658.22088976 716.49237115 658.23018775 720.79611514 658.23455811 725.09991455 C658.23889257 728.5625898 658.25260375 732.02500881 658.27557373 735.48760986 C658.47719781 766.55476329 657.03876206 797.42710755 652.74432373 828.22784424 C652.64172241 828.98404053 652.53912109 829.74023682 652.43341064 830.51934814 C642.38387152 904.28394722 621.48225901 975.76280673 589.99432373 1043.22784424 C589.54621338 1044.19109619 589.09810303 1045.15434814 588.63641357 1046.14678955 C574.08983705 1077.28778552 557.25967748 1107.72949454 537.99432373 1136.22784424 C537.54395752 1136.89525635 537.09359131 1137.56266846 536.62957764 1138.25030518 C533.45676553 1142.93688468 530.2390412 1147.59081742 526.99432373 1152.22784424 C526.58359619 1152.81630127 526.17286865 1153.4047583 525.74969482 1154.01104736 C518.78164726 1163.96780644 511.43365893 1173.6200415 503.99432373 1183.22784424 C503.51318115 1183.85223389 503.03203857 1184.47662354 502.53631592 1185.11993408 C496.10083534 1193.46531377 489.40225368 1201.53468782 482.49285889 1209.49102783 C481.02607774 1211.19104104 479.57599957 1212.90379359 478.13104248 1214.62237549 C465.66754555 1229.41706699 452.1480851 1243.16499274 438.49432373 1256.85284424 C437.88604736 1257.46379944 437.277771 1258.07475464 436.65106201 1258.70422363 C430.27405494 1265.10253042 423.88028504 1271.37282614 416.99432373 1277.22784424 C415.21862152 1278.8475224 413.44724066 1280.47196142 411.68182373 1282.10284424 C406.80095564 1286.54970901 401.77056849 1290.75213324 396.63153076 1294.89532471 C394.77044305 1296.41006028 392.92675167 1297.94456209 391.08416748 1299.48175049 C382.27523246 1306.82048773 373.32554161 1313.88572483 364.08953857 1320.67852783 C361.90779988 1322.2918247 359.74136253 1323.92420733 357.57635498 1325.55987549 C345.41588769 1334.70252984 332.82821168 1343.06425784 319.99432373 1351.22784424 C319.00738525 1351.8586792 318.02044678 1352.48951416 317.00360107 1353.13946533 C243.81993865 1399.83443287 161.96364835 1433.49566635 2.93182373 1463.04034424 C1.97317413 1463.14575531 1.01452454 1463.25116638 0.02682495 1463.35977173 C-25.08196603 1466.08805453 -50.02202241 1466.47191097 -75.25567627 1466.47784424 C-76.54620848 1466.47850702 -76.54620848 1466.47850702 -77.86281204 1466.4791832 C-102.60862519 1466.4858451 -127.24242172 1466.41629792 -151.84875488 1463.48431396 C-154.13573766 1463.21237923 -156.42384207 1462.95163624 -158.71221924 1462.69171143 C-204.89698478 1457.38407452 -250.64272878 1448.20766362 -295.00567627 1434.22784424 C-295.7118811 1434.00548096 -296.41808594 1433.78311768 -297.14569092 1433.55401611 C-362.00255842 1413.06043714 -424.45997359 1384.16851175 -481.00567627 1346.22784424 C-481.84372803 1345.66774658 -482.68177979 1345.10764893 -483.54522705 1344.53057861 C-501.00268373 1332.83574705 -518.01421705 1320.69116563 -534.22833252 1307.31768799 C-537.27286829 1304.81065301 -540.36669797 1302.3777998 -543.48834229 1299.96783447 C-549.70873662 1295.16354869 -555.57475701 1290.10740385 -561.31427002 1284.73956299 C-565.73201974 1280.61675737 -570.21903673 1276.60504555 -575.00567627 1272.91534424 C-575.66567627 1272.35846924 -576.32567627 1271.80159424 -577.00567627 1271.22784424 C-577.00567627 1270.56784424 -577.00567627 1269.90784424 -577.00567627 1269.22784424 C-577.59612228 1268.962388 -578.1865683 1268.69693176 -578.79490662 1268.4234314 C-581.06989994 1267.19311199 -582.55734117 1265.92376349 -584.37799072 1264.09844971 C-585.01577957 1263.46373749 -585.65356842 1262.82902527 -586.3106842 1262.17507935 C-587.3295295 1261.14545578 -587.3295295 1261.14545578 -588.36895752 1260.09503174 C-589.43426949 1259.02903244 -589.43426949 1259.02903244 -590.52110291 1257.9414978 C-592.02378584 1256.43579518 -593.52403895 1254.92766426 -595.02203369 1253.41729736 C-597.29413104 1251.12708121 -599.57398949 1248.84483113 -601.85528564 1246.56378174 C-603.31864622 1245.09549996 -604.78155125 1243.62676401 -606.24395752 1242.15753174 C-606.91711502 1241.48326141 -607.59027252 1240.80899109 -608.28382874 1240.11428833 C-612.16511702 1236.19474245 -615.87734188 1232.17447557 -619.47645569 1227.99394226 C-621.71565563 1225.40788853 -624.04910408 1222.91845853 -626.38067627 1220.41534424 C-630.67318835 1215.76880296 -634.73905658 1210.98685184 -638.70489502 1206.05596924 C-640.74414353 1203.54932081 -642.83014665 1201.09127442 -644.93951416 1198.64361572 C-650.6414087 1192.01277786 -655.92455334 1185.12928895 -661.12286377 1178.09893799 C-663.58186537 1174.776291 -666.12676595 1171.530981 -668.69317627 1168.29034424 C-695.07316973 1134.09405641 -718.44039283 1095.21091228 -737.00567627 1056.22784424 C-737.45314209 1055.3010083 -737.90060791 1054.37417236 -738.3616333 1053.41925049 C-773.75163057 979.92853276 -796.89054647 901.40968116 -811.20880127 753.72003174 C-811.21162865 752.91056217 -811.21445602 752.10109261 -811.21736908 751.26709366 C-811.2322423 746.96331732 -811.24154029 742.65957333 -811.24591064 738.35577393 C-811.25024511 734.89309868 -811.26395629 731.43067967 -811.28692627 727.96807861 C-811.48855034 696.90092518 -810.0501146 666.02858093 -805.75567627 635.22784424 C-805.65307495 634.47164795 -805.55047363 633.71545166 -805.44476318 632.93634033 C-799.92741569 592.43847061 -791.48680227 552.16832699 -779.00567627 513.22784424 C-778.79040283 512.55364441 -778.57512939 511.87944458 -778.35333252 511.18481445 C-757.63114554 446.3562325 -729.11819335 383.77395575 -691.00567627 327.22784424 C-690.26486816 326.12086182 -690.26486816 326.12086182 -689.50909424 324.99151611 C-681.34771832 312.8167233 -672.8103238 300.94471459 -664.00567627 289.22784424 C-663.55095947 288.62246826 -663.09624268 288.01709229 -662.62774658 287.39337158 C-649.32156345 269.74554761 -635.17847441 252.70460105 -620.08770752 236.55596924 C-618.42119011 234.77261523 -616.78120473 232.97374686 -615.1651001 231.14434814 C-608.72124574 223.85933622 -601.92257338 216.95858092 -595.04644775 210.08331299 C-593.04234209 208.07698136 -591.04642151 206.06272366 -589.05059814 204.04815674 C-587.7769973 202.77162831 -586.50292653 201.49556851 -585.22833252 200.22003174 C-584.63254898 199.61706268 -584.03676544 199.01409363 -583.42292786 198.39285278 C-579.23454961 194.22784424 -579.23454961 194.22784424 -577.00567627 194.22784424 C-577.00567627 193.56784424 -577.00567627 192.90784424 -577.00567627 192.22784424 C-575.60723877 190.81768799 -575.60723877 190.81768799 -573.63067627 189.16534424 C-570.43021282 186.44860638 -567.29261564 183.68449205 -564.19317627 180.85284424 C-559.87793051 176.95859806 -555.43475872 173.26129699 -550.91583252 169.60675049 C-548.33674696 167.49847787 -545.79648611 165.3549605 -543.26617432 163.18902588 C-536.93935889 157.77831897 -530.4726222 152.58797018 -523.81378174 147.58966064 C-522.59275543 146.67001647 -521.37571075 145.74506536 -520.16241455 144.81524658 C-508.68976935 136.0246689 -496.77126737 127.93780939 -484.75567627 119.91534424 C-483.99117157 119.40364685 -483.22666687 118.89194946 -482.43899536 118.36474609 C-472.45789563 111.6933808 -462.36445984 105.29623611 -452.00567627 99.22784424 C-450.6362085 98.42165649 -450.6362085 98.42165649 -449.23907471 97.59918213 C-435.72680062 89.69134024 -421.94248166 82.35558541 -408.00567627 75.22784424 C-407.29669189 74.86239502 -406.58770752 74.4969458 -405.85723877 74.12042236 C-376.92863618 59.22044934 -346.89306525 46.47063995 -316.00567627 36.22784424 C-314.81619385 35.8274292 -313.62671143 35.42701416 -312.40118408 35.01446533 C-270.81227436 21.02301533 -228.43855524 10.66630518 -185.00567627 4.22784424 C-184.28625854 4.11929108 -183.56684082 4.01073792 -182.82562256 3.89889526 C-123.18507821 -5.06907228 -60.01280749 -6.87389872 0 0 Z " fill="#5D9584" transform="translate(858.0056762695313,49.77215576171875)"/>
<path d="M0 0 C1.05215783 -0.00445784 2.10431566 -0.00891569 3.18835706 -0.01350862 C4.34842088 -0.01332426 5.5084847 -0.01313989 6.70370197 -0.01294994 C8.54803026 -0.01846498 8.54803026 -0.01846498 10.4296177 -0.02409142 C13.84995503 -0.03322228 17.27024435 -0.03782898 20.69058931 -0.04048073 C24.37830722 -0.0443836 28.06601124 -0.05396318 31.75372028 -0.0626936 C40.67373347 -0.0824773 49.59374781 -0.09253488 58.51377746 -0.10142139 C62.72505912 -0.10580851 66.93633953 -0.1111749 71.1476202 -0.11641026 C85.17243374 -0.1334382 99.1972465 -0.1479225 113.22206879 -0.155159 C116.86375842 -0.15706866 120.50544804 -0.158989 124.14713764 -0.16094494 C125.05217532 -0.16142868 125.95721301 -0.16191242 126.88967607 -0.16241082 C141.48225673 -0.17067376 156.07475441 -0.19593977 170.66729899 -0.22852562 C185.68767493 -0.26178932 200.70800908 -0.27962577 215.72842199 -0.28280324 C224.14556973 -0.28495258 232.56259716 -0.29346449 240.97970867 -0.31926441 C248.16510523 -0.34123827 255.35035238 -0.34889435 262.53577872 -0.33929763 C266.18738624 -0.33482605 269.83868741 -0.33620617 273.49025059 -0.35605907 C335.25259889 -0.67281538 395.95002834 13.2042226 444.9413271 52.13422108 C445.64386616 52.69109608 446.34640522 53.24797108 447.07023335 53.82172108 C450.79659989 56.88951277 453.94906315 60.26975093 457.0663271 63.95062733 C459.08710806 66.30399516 461.19966866 68.55439772 463.3163271 70.82172108 C478.62162681 87.86508025 488.39285829 108.30513021 495.1288271 130.00922108 C495.36690083 130.76235584 495.60497456 131.51549061 495.85026264 132.29144764 C499.98998239 146.16886777 501.42313468 159.78058727 501.27750874 174.20038319 C501.253807 176.69883937 501.2569951 179.19622652 501.26359272 181.69476795 C501.24573897 191.99467318 500.51041442 201.95013544 498.9413271 212.13422108 C498.81669086 212.96880848 498.69205463 213.80339588 498.56364155 214.66327381 C491.57111708 257.55442782 465.06129772 290.23223596 430.9413271 315.13422108 C418.92467964 323.5248585 405.33740188 329.56485584 392.20353413 335.97015858 C390.0315733 336.94223689 390.0315733 336.94223689 388.9413271 338.13422108 C392.63168702 339.7831053 396.27877433 341.28056596 400.1288271 342.51312733 C422.53627275 349.91356246 442.29871956 360.9829653 459.64054585 377.02484608 C461.71265349 378.92457126 463.8397384 380.71648488 466.0038271 382.50922108 C470.96568164 386.84462906 474.89199104 391.96156422 478.9413271 397.13422108 C479.75859272 398.13582264 480.57585835 399.1374242 481.4178896 400.16937733 C496.30225732 418.60451548 506.7152716 441.14814406 512.5663271 464.00922108 C512.77281879 464.81142078 512.97931049 465.61362049 513.19205952 466.44012928 C516.40388835 479.46363189 517.34761197 492.09403753 517.3163271 505.44672108 C517.31611561 506.28093586 517.31590412 507.11515064 517.31568623 507.97464466 C517.28030376 522.00236813 516.24530292 535.45407795 512.9413271 549.13422108 C512.75940815 549.89847401 512.5774892 550.66272694 512.39005756 551.45013905 C504.72239109 582.48397412 488.98391199 609.22789853 466.9413271 632.13422108 C466.32515522 632.81355701 465.70898335 633.49289295 465.0741396 634.19281483 C428.83008804 672.93367882 367.90959731 690.83563987 316.4100771 692.92328358 C313.10509978 693.03774114 313.10509978 693.03774114 310.57435399 693.63971418 C307.76826103 694.16672449 305.1983868 694.25838953 302.34414673 694.25726891 C300.66240908 694.26025548 300.66240908 694.26025548 298.94669694 694.26330239 C297.10672449 694.25893312 297.10672449 694.25893312 295.22958088 694.25447559 C293.26919289 694.25575723 293.26919289 694.25575723 291.2692011 694.25706476 C287.64338472 694.25930106 284.01759788 694.25530023 280.39178526 694.2502867 C276.48113451 694.24597001 272.57048542 694.24742949 268.65983295 694.24818897 C261.88494376 694.24871343 255.11006419 694.24557475 248.33517742 694.23995113 C238.53981719 694.23182561 228.74446162 694.22921983 218.94909839 694.22796314 C203.05693826 694.22577428 187.16478326 694.21911868 171.27262592 694.20966053 C155.83447514 694.20048213 140.39632576 694.19340339 124.9581728 694.18915272 C124.00663483 694.18888999 123.05509685 694.18862727 122.0747244 694.18835659 C117.30115885 694.18705155 112.52759329 694.18578784 107.75402772 694.18454468 C68.14979059 694.17417723 28.54555918 694.15656341 -11.0586729 694.13422108 C-11.15224125 678.36560666 -11.22271315 662.59706757 -11.26592159 646.82824421 C-11.28652004 639.50598827 -11.31458827 632.18390514 -11.36043072 624.86176014 C-11.40038217 618.47748873 -11.42612547 612.09334251 -11.43502688 605.70894957 C-11.4402277 602.33046336 -11.45239376 598.95233522 -11.48159313 595.57396412 C-11.5106669 591.79630855 -11.51462704 588.01939257 -11.51277447 584.24164295 C-11.52715557 583.12961506 -11.54153667 582.01758717 -11.55635357 580.87186146 C-11.51392269 572.86571393 -10.08193256 567.41262844 -4.6055479 561.47406483 C-3.68257915 560.68129139 -2.7596104 559.88851795 -1.8086729 559.07172108 C-0.74485945 558.13962426 0.31756293 557.20593818 1.3788271 556.27093983 C1.94859272 555.7738451 2.51835835 555.27675037 3.1053896 554.76459217 C6.53911549 551.71533399 9.85594587 548.54016723 13.1913271 545.38422108 C18.34122075 540.51254448 23.57579021 535.76759989 28.9413271 531.13422108 C29.51850483 530.63487049 30.09568256 530.13551991 30.69035053 529.62103748 C34.7597268 526.10873578 38.84958616 522.62041653 42.9413271 519.13422108 C44.41279194 517.87738514 44.41279194 517.87738514 45.91398335 516.59515858 C53.68534126 510.03172837 61.7139866 503.83436715 69.83927631 497.71722889 C71.18157263 496.70637531 72.52194447 495.69295778 73.85978413 494.67621326 C83.50503763 487.35310779 93.54240143 480.82079267 103.83683491 474.4486742 C106.60713627 472.71836068 109.33466115 470.92472481 112.0663271 469.13422108 C123.03698724 462.13422108 123.03698724 462.13422108 127.9413271 462.13422108 C127.9413271 501.07422108 127.9413271 540.01422108 127.9413271 580.13422108 C155.081929 580.25097496 155.081929 580.25097496 182.2225771 580.32953358 C193.30859088 580.35316368 204.39448206 580.38076876 215.4803896 580.43597889 C223.55828154 580.47618886 231.63607294 580.50173385 239.71406221 580.51057506 C243.98058227 580.51573283 248.246815 580.52761622 252.51324177 580.5571413 C286.55790699 580.78319552 320.56950722 578.75470618 347.9413271 556.13422108 C349.18849506 555.17129139 349.18849506 555.17129139 350.46085835 554.18890858 C361.40121122 545.12650604 368.11188926 530.59527527 371.9413271 517.13422108 C372.3125771 516.10297108 372.6838271 515.07172108 373.0663271 514.00922108 C377.80957555 498.42426188 376.69133059 477.57173244 371.9413271 462.13422108 C371.52367085 460.52160389 371.52367085 460.52160389 371.0975771 458.87640858 C367.79670519 446.83960843 361.92043826 436.65707636 353.9413271 427.13422108 C353.03060444 425.92379139 353.03060444 425.92379139 352.10148335 424.68890858 C344.40754187 415.58974452 333.63963668 409.92431931 322.9413271 405.13422108 C321.82628803 404.62761951 320.71124897 404.12101795 319.56242085 403.59906483 C280.78785901 387.91356247 235.81950854 393.13512272 195.9413271 401.13422108 C195.11777729 401.29583729 194.29422749 401.4574535 193.44572163 401.62396717 C168.9569271 406.55311568 144.27036346 414.96101455 121.9413271 426.13422108 C120.99451069 426.60021717 120.04769428 427.06621326 119.07218647 427.54633045 C95.92574684 438.99367391 74.44145108 452.45563189 53.9413271 468.13422108 C52.74018947 469.03877762 51.53841231 469.94248583 50.33585835 470.84515858 C43.71492116 475.84260436 37.34756038 481.09873046 31.0507021 486.49359608 C28.26917899 488.87140489 25.4255636 491.16271559 22.5663271 493.44672108 C16.57039461 498.3189649 10.99692132 503.61522436 5.3788271 508.91156483 C2.30093651 511.80991179 -0.84347466 514.61375751 -4.04695415 517.37250233 C-7.24746644 520.17528105 -10.36631863 523.06719639 -13.49690533 525.9474535 C-16.66700869 528.86255404 -19.85287751 531.75828244 -23.0586729 534.63422108 C-26.74697839 537.94423882 -30.40928343 541.28141691 -34.0586729 544.63422108 C-40.62208272 550.66150041 -47.20480112 556.66645586 -53.9336729 562.50922108 C-57.362 565.49339243 -60.71470239 568.55629537 -64.0586729 571.63422108 C-69.71754205 576.83811016 -75.46330547 581.91864681 -81.3086729 586.91156483 C-82.51705238 587.94406291 -83.7253844 588.97661653 -84.9336729 590.00922108 C-85.5423521 590.52903553 -86.1510313 591.04884998 -86.77815533 591.58441639 C-90.31529348 594.61340764 -93.80276822 597.6858613 -97.2461729 600.82172108 C-101.35808207 604.54772291 -105.59031887 608.08501431 -109.90632915 611.57172108 C-112.24727171 613.4644302 -114.56116502 615.38672283 -116.86726665 617.32172108 C-149.18479572 644.3680043 -184.94742363 668.40157568 -225.0586729 682.13422108 C-225.74235943 682.37205311 -226.42604595 682.60988514 -227.13045025 682.8549242 C-253.53048739 691.94375957 -280.46168627 696.6558413 -308.0586729 700.13422108 C-309.30374615 700.31525379 -310.54881939 700.49628651 -311.83162212 700.68280506 C-316.91624874 701.31297517 -321.99215926 701.29645385 -327.10945415 701.30218983 C-328.16287502 701.30551823 -329.21629589 701.30884663 -330.3016386 701.31227589 C-332.52801868 701.31732152 -334.75440626 701.31968495 -336.98079205 701.31952381 C-340.32264121 701.32168962 -343.66414854 701.33981354 -347.00593853 701.35883045 C-359.82782291 701.39291457 -372.34999083 700.84415154 -385.0586729 699.13422108 C-386.12593609 698.99878895 -387.19319927 698.86335682 -388.29280376 698.72382069 C-455.41214766 689.70049552 -523.40479305 657.96744431 -565.15803814 603.38959217 C-584.27010878 578.02416408 -597.59291642 549.73477548 -606.0586729 519.13422108 C-606.31100689 518.22865467 -606.56334087 517.32308826 -606.82332134 516.39008045 C-611.61129742 498.83614097 -614.17501908 481.20250529 -616.0586729 463.13422108 C-616.14188854 462.43497774 -616.22510418 461.73573441 -616.3108415 461.01530188 C-617.2888536 451.91829477 -617.19482903 442.8251705 -617.17892742 433.68971729 C-617.17936397 431.81993857 -617.1802404 429.95015991 -617.18151659 428.08038157 C-617.18374519 422.96311676 -617.17976268 417.84587301 -617.17473853 412.72861087 C-617.1704107 407.20250856 -617.17188211 401.67640738 -617.1726408 396.15030384 C-617.17316456 386.58280946 -617.17003324 377.01532191 -617.16440296 367.44782925 C-617.15626789 353.6149253 -617.15367068 339.78202465 -617.15241497 325.94911858 C-617.15022761 303.50487674 -617.14358468 281.06063849 -617.13411236 258.61639881 C-617.12492279 236.81691984 -617.11784169 215.01744184 -617.11360455 193.21796131 C-617.11347302 192.54558888 -617.11334149 191.87321645 -617.11320598 191.1804691 C-617.11188742 184.42801156 -617.11061161 177.67555401 -617.10936712 170.92309646 C-617.09893231 114.32680138 -617.08045863 57.73051315 -617.0586729 1.13422108 C-571.5186729 1.13422108 -525.9786729 1.13422108 -479.0586729 1.13422108 C-479.0493272 14.30078602 -479.0399815 27.46735096 -479.03035259 41.03290272 C-478.99757933 83.25909382 -478.94524827 125.4852407 -478.88075195 167.71139479 C-478.87073563 174.28080346 -478.86089131 180.85021238 -478.85115337 187.41962147 C-478.849212 188.72736034 -478.84727063 190.03509922 -478.84527043 191.38246655 C-478.81432927 212.50059649 -478.79729186 233.6187156 -478.78547868 254.73686392 C-478.77302614 276.4389325 -478.74543272 298.14094458 -478.70405984 319.84297746 C-478.67904143 333.21227653 -478.66554706 346.58148178 -478.66724333 359.95080458 C-478.66727331 369.14404254 -478.65247151 378.33718561 -478.62650862 387.53038651 C-478.61199745 392.81820713 -478.60354187 398.10583324 -478.61287022 403.39367008 C-478.72492558 446.28778549 -478.72492558 446.28778549 -470.0586729 488.13422108 C-469.82841412 488.86431385 -469.59815533 489.59440662 -469.360919 490.34662342 C-459.8009201 520.08406052 -440.49043157 544.9172493 -412.4961729 559.32172108 C-397.83453405 566.51551584 -382.21884808 571.00788224 -366.0586729 573.13422108 C-365.39464458 573.22558338 -364.73061626 573.31694569 -364.04646587 573.41107655 C-305.52569393 580.80810212 -252.09796936 552.94858494 -205.0586729 521.13422108 C-204.3598399 520.66419666 -203.66100689 520.19417225 -202.94099712 519.70990467 C-185.70893928 508.09690657 -169.05873188 495.71599485 -152.57771587 483.06683826 C-150.18958761 481.23465923 -147.79866118 479.40621882 -145.40632915 477.57953358 C-139.1151363 472.77562859 -132.83103012 467.96269408 -126.5586729 463.13422108 C-124.96659891 461.90954878 -123.37452173 460.68488061 -121.78230572 459.46039295 C-120.57293903 458.52990005 -119.36399078 457.59886317 -118.15535259 456.6674242 C-109.32260679 449.86376474 -100.4243775 443.16378742 -91.42732525 436.57880116 C-86.30576061 432.82019181 -81.24590722 428.99041834 -76.2124815 425.11468983 C-67.90083347 418.71617366 -59.49004243 412.56927481 -50.78987408 406.70941639 C-46.0612686 403.52177011 -41.43581568 400.2391619 -36.8711729 396.82172108 C-26.57083984 389.15549694 -15.80234102 382.15795291 -5.0586729 375.13422108 C-4.22819439 374.5912035 -3.39771587 374.04818592 -2.54207134 373.48871326 C37.31528836 347.56726017 79.46616748 325.85392839 123.9413271 309.13422108 C124.81241108 308.80196522 125.68349506 308.46970936 126.58097553 308.12738514 C166.52829246 293.04722859 208.89283129 289.09609446 251.11291218 286.25087452 C260.12768187 285.64285049 269.12920519 284.98998568 278.1210146 284.09906483 C279.31131527 283.9821806 279.31131527 283.9821806 280.52566242 283.86293507 C302.06937565 281.63822615 323.75941384 274.83910048 338.9178896 258.63812733 C355.13053124 238.57576576 361.0480333 212.48645678 358.9413271 187.13422108 C356.8480827 168.26468467 347.17256739 151.43217351 333.9413271 138.13422108 C332.83724506 136.97793201 332.83724506 136.97793201 331.71085835 135.79828358 C324.77201508 128.9872917 316.73359251 125.02806974 307.9413271 121.13422108 C306.89090229 120.64776112 305.84047749 120.16130116 304.75822163 119.66009998 C289.64926799 113.24278973 272.47876536 113.47688586 256.3788271 113.38422108 C253.95295483 113.35808222 251.52709226 113.33103072 249.1012392 113.30316639 C242.84190445 113.23902947 236.58274582 113.19937453 230.32315826 113.17058659 C225.01643165 113.14593871 219.70980392 113.11347356 214.40314674 113.07682896 C203.01781542 112.99824524 191.63256577 112.94232025 180.24702168 112.90607166 C176.08232439 112.89269892 171.91771439 112.87349883 167.75306416 112.84967518 C162.79912154 112.82229863 157.84536665 112.81029376 152.89135075 112.80989552 C151.04265512 112.80737783 149.19395878 112.7997002 147.34530735 112.78667164 C144.80166069 112.76971625 142.25868829 112.77135111 139.71500874 112.77777576 C138.96587428 112.76855721 138.21673983 112.75933865 137.44490433 112.74984074 C133.63546084 112.74123823 133.63546084 112.74123823 130.25091171 114.28362656 C128.37857609 116.92945333 128.56489891 118.88578266 128.56278706 122.11122608 C128.55048306 123.98496906 128.55048306 123.98496906 128.53793049 125.89656544 C128.54388925 127.28348366 128.55010835 128.67040077 128.55656147 130.05731678 C128.55245698 131.51599013 128.54699683 132.9746602 128.54028034 134.43332386 C128.52854434 137.57633913 128.52607493 140.71917874 128.53063679 143.86221218 C128.53743867 148.83352228 128.52159111 153.80460079 128.50224018 158.77586842 C128.4643505 169.33280678 128.4515845 179.88972515 128.4413271 190.44672108 C128.4302559 201.83313746 128.41488622 213.21944746 128.37061453 224.60579079 C128.35226512 229.54583474 128.34836369 234.48561468 128.35554981 239.42568457 C128.3570734 242.50272552 128.34627656 245.57963486 128.33217144 248.65664005 C128.32817399 250.08123051 128.32928496 251.50584609 128.33594418 252.9304266 C128.34435152 254.87902868 128.33257648 256.82768637 128.31986713 258.77626514 C128.31879837 260.41029018 128.31879837 260.41029018 128.31770802 262.07732582 C127.57785421 268.0862797 124.70033835 271.98141647 120.13224506 275.65619373 C115.71822532 278.63396012 110.86276976 280.68112584 106.0038271 282.82172108 C104.85503071 283.34008533 103.70623432 283.85844959 102.52262592 284.39252186 C100.14701106 285.46418124 97.76931017 286.53122815 95.38956928 287.59369373 C90.29026552 289.87184488 85.20767415 292.18588221 80.1288271 294.50922108 C79.14994526 294.95676746 78.17106342 295.40431385 77.1625185 295.86542225 C66.43563792 300.79152652 55.81168473 305.9284225 45.1982851 311.09346485 C40.59039268 313.33547436 35.97738819 315.56670334 31.36221027 317.79367542 C27.82303296 319.50238124 24.28583452 321.21515765 20.7489748 322.92865467 C19.01830885 323.76624079 17.28693674 324.60236959 15.55482197 325.43695545 C13.11252811 326.61427576 10.67313836 327.7974274 8.23429585 328.98187733 C7.514576 329.32723026 6.79485615 329.6725832 6.05332661 330.02840137 C1.72053157 332.14127822 -2.30825679 334.49085242 -6.30725384 337.18645191 C-8.0586729 338.13422108 -8.0586729 338.13422108 -11.0586729 338.13422108 C-11.12728551 295.63567298 -11.18017445 253.13713126 -11.21186889 210.63853879 C-11.21562118 205.62529933 -11.21950413 200.61205998 -11.22346783 195.59882069 C-11.22425476 194.60074228 -11.22504169 193.60266388 -11.22585247 192.57434068 C-11.23891923 176.39710125 -11.26258004 160.21989369 -11.29013129 144.04267319 C-11.31815019 127.45294865 -11.33484171 110.86324083 -11.34093839 94.27349359 C-11.34506214 84.03032088 -11.35810342 73.78723823 -11.38242231 63.54409323 C-11.39823614 56.52739038 -11.40308318 49.51073433 -11.39917704 42.49401494 C-11.39724868 38.44102315 -11.40027913 34.38818911 -11.41628933 30.33522511 C-11.43082514 26.62858678 -11.43166682 22.92221317 -11.42136959 19.21556298 C-11.41949001 17.23145445 -11.43248541 15.24734929 -11.44591683 13.26328534 C-11.43994369 12.09385807 -11.43397054 10.9244308 -11.42781639 9.71956635 C-11.42895555 8.70609278 -11.43009471 7.69261922 -11.43126839 6.64843434 C-11.0586729 4.13422108 -11.0586729 4.13422108 -9.72310144 2.347637 C-6.58815166 0.06216911 -3.74024092 0.00734267 0 0 Z " fill="#FEFEFE" transform="translate(828.0586729049683,426.86577892303467)"/>
</svg>
